<?xml version="1.0" encoding="iso-8859-1"?>
<!-- Uploaded to: SVG Repo, www.svgrepo.com, Generator: SVG Repo Mixer Tools -->
<svg version="1.1" id="Layer_1" xmlns="http://www.w3.org/2000/svg" xmlns:xlink="http://www.w3.org/1999/xlink" 
	 viewBox="0 0 511.936 511.936" xml:space="preserve">
<path d="M255.928,322.6c-88.936,0-161.296-72.36-161.296-161.296C94.632,72.36,166.984,0,255.928,0s161.304,72.36,161.304,161.304
	C417.232,250.24,344.872,322.6,255.928,322.6z M255.928,16c-80.12,0-145.296,65.176-145.296,145.304
	c0,80.12,65.176,145.296,145.296,145.296c80.128,0,145.304-65.176,145.304-145.296C401.232,81.176,336.048,16,255.928,16z"/>
<rect x="247.928" y="3.384" width="16" height="307.76"/>
<rect x="102.392" y="153.328" width="310.144" height="16"/>
<path d="M255.744,124.488c-80.928,0-113.2-67.272-114.536-70.144l14.496-6.768c0.008,0,0.008,0.008,0.008,0.016l0,0
	c1.28,2.704,29.648,60.888,100.04,60.888c70.816,0,98.96-59.592,99.232-60.192l14.544,6.672
	C368.224,57.8,336.712,124.488,255.744,124.488z"/>
<path d="M155.704,275.016l-14.496-6.752c1.336-2.864,33.608-70.144,114.536-70.144c80.968,0,112.48,66.68,113.784,69.512
	l-14.544,6.672c-1.136-2.448-28.752-60.184-99.232-60.184C184.904,214.128,155.992,274.416,155.704,275.016z"/>
<path d="M247.208,321.608c-3.056-2.792-74.76-69.464-74.76-160.304c0-90.992,73.352-155.2,76.48-157.888l10.448,12.12
	c-0.712,0.616-70.92,62.24-70.92,145.776c0,83.872,68.856,147.864,69.552,148.504L247.208,321.608z"/>
<path d="M264.648,321.608l-10.808-11.8c0.696-0.64,69.56-64.832,69.56-148.504c0-83.728-70.2-145.16-70.912-145.768l10.44-12.128
	c3.128,2.688,76.48,66.896,76.48,157.888C339.408,252.152,267.704,318.824,264.648,321.608z"/>
<g>
	<path style="fill:#E50914;" d="M29.032,401.424l11.568,50.16c2.496,11.8,4.992,23.824,7.032,35.848h0.456
		c2.272-12.032,5.904-24.28,9.08-35.624l14.296-50.384H94.16L108,450.44c3.408,12.936,6.352,24.96,8.848,36.992h0.456
		c1.816-12.032,4.312-24.056,7.256-36.992l12.256-49.016h27.456l-34.72,110.512h-25.864L90.52,467.008
		c-3.4-11.576-5.896-22.016-8.392-35.408h-0.464c-2.264,13.616-5.216,24.504-8.392,35.408L59.2,511.936H33.112L0.44,401.424H29.032z
		"/>
	<path style="fill:#E50914;" d="M202.648,401.424l11.568,50.16c2.496,11.8,4.992,23.824,7.032,35.848h0.456
		c2.272-12.032,5.904-24.28,9.08-35.624l14.296-50.384h22.696l13.84,49.016c3.408,12.936,6.352,24.96,8.848,36.992h0.456
		c1.816-12.032,4.312-24.056,7.256-36.992l12.256-49.016h27.456l-34.72,110.512h-25.864l-13.168-44.928
		c-3.4-11.576-5.896-22.016-8.392-35.408h-0.456c-2.264,13.616-5.216,24.504-8.392,35.408l-14.072,44.928H206.72l-32.672-110.512
		H202.648z"/>
	<path style="fill:#E50914;" d="M376.248,401.424l11.568,50.16c2.496,11.8,4.992,23.824,7.032,35.848h0.464
		c2.264-12.032,5.896-24.28,9.072-35.624l14.296-50.384h22.696l13.84,49.016c3.408,12.936,6.352,24.96,8.848,36.992h0.456
		c1.816-12.032,4.312-24.056,7.256-36.992l12.256-49.016h27.464l-34.728,110.512h-25.864l-13.168-44.928
		c-3.4-11.576-5.896-22.016-8.392-35.408h-0.456c-2.264,13.616-5.216,24.504-8.392,35.408l-14.072,44.928H380.32l-32.672-110.512
		H376.248z"/>
</g>
</svg>