<!DOCTYPE svg PUBLIC "-//W3C//DTD SVG 1.1//EN" "http://www.w3.org/Graphics/SVG/1.1/DTD/svg11.dtd">
<!-- Uploaded to: SVG Repo, www.svgrepo.com, Transformed by: SVG Repo Mixer Tools -->
<svg fill="#30f" height="64px" width="64px" version="1.1" id="Layer_1" xmlns="http://www.w3.org/2000/svg" xmlns:xlink="http://www.w3.org/1999/xlink" viewBox="0 0 512 512" xml:space="preserve" stroke="#30f">
<g id="SVGRepo_bgCarrier" stroke-width="0"/>
<g id="SVGRepo_tracerCarrier" stroke-linecap="round" stroke-linejoin="round"/>
<g id="SVGRepo_iconCarrier"> <g> <g> <path d="M472.778,421.523h-36.71V171.26c0-9.813-8.008-17.795-17.852-17.795h-6.718v-6.546c0-10.285-8.373-18.651-18.663-18.651 h-37.9c-10.292,0-18.664,8.366-18.664,18.651v6.546h-98.194c-9.844,0-17.852,7.983-17.852,17.795v31.811h-11.653 c-10.292,0-18.665,8.367-18.665,18.651v6.547H91.713c-9.844,0-17.852,7.983-17.852,17.795v156.222 c0,4.328,3.509,7.837,7.837,7.837s7.837-3.509,7.837-7.837v-20.892H274.03v53.053H89.534v-1.859c0-4.328-3.509-7.837-7.837-7.837 s-7.837,3.509-7.837,7.837v63.739H39.222c-4.328,0-7.837,3.509-7.837,7.837c0,4.328,3.509,7.837,7.837,7.837h286.401 c4.329,0,7.837-3.509,7.837-7.837c0-4.328-3.508-7.837-7.837-7.837h-35.919v-59.13h183.073c4.329,0,7.837-3.509,7.837-7.837 C480.614,425.032,477.106,421.523,472.778,421.523z M351.945,146.919c0-1.642,1.342-2.978,2.99-2.978h37.899 c1.649,0,2.989,1.336,2.989,2.978v6.546h-43.879V146.919z M205.581,221.722c0-1.641,1.342-2.978,2.992-2.978h37.898 c1.649,0,2.991,1.335,2.991,2.978v6.547h-43.88V221.722z M89.534,496.327V450.12H274.03v46.206H89.534z M274.031,296.995h-130.88 c-4.328,0-7.837,3.509-7.837,7.837c0,4.328,3.509,7.837,7.837,7.837h130.88v53.053H89.534v-53.053h22.27 c4.328,0,7.837-3.509,7.837-7.837c0-4.328-3.509-7.837-7.837-7.837h-22.27v-50.931c0-1.169,0.978-2.121,2.179-2.121h180.138 c1.202,0,2.18,0.952,2.18,2.121V296.995z M420.394,359.643h-27.512c-4.329,0-7.837,3.509-7.837,7.837s3.508,7.837,7.837,7.837 h27.512v46.206h-130.69v-46.206h69.741c4.329,0,7.837-3.509,7.837-7.837s-3.508-7.837-7.837-7.837h-69.741v-53.053h130.69V359.643 z M420.394,290.917h-130.69v-44.853c0-2.958-0.739-5.743-2.025-8.199h132.715V290.917z M420.394,222.191H265.135v-0.468 c0-10.284-8.373-18.651-18.664-18.651h-10.571v-31.811c0-1.17,0.978-2.121,2.179-2.121h180.137c1.201,0,2.179,0.952,2.179,2.121 V222.191z"/> </g> </g> <g> <g> <path d="M305.261,81.41l-14.201-19.337c-1.971-2.684-5.138-4.287-8.473-4.287c-3.347,0-6.519,1.609-8.47,4.284l-14.18,19.305 c-10.63,13.712-10.233,31.026,0.982,42.147c5.784,5.727,13.467,8.896,21.664,8.922h0.01c0.008,0,0.016,0,0.023,0 c8.171-0.024,15.855-3.194,21.637-8.924C315.373,112.495,315.784,95.19,305.261,81.41z M293.218,112.388 c-2.836,2.811-6.612,4.368-10.636,4.383c-4.021-0.018-7.797-1.575-10.632-4.382c-5.592-5.546-5.428-13.973,0.418-21.469 c0.046-0.06,0.092-0.119,0.137-0.18l10.081-13.726l10.087,13.735c0.032,0.044,0.066,0.088,0.098,0.131 C298.583,98.456,298.757,106.898,293.218,112.388z"/> </g> </g> <g> <g> <path d="M169.402,143.741l-18.133-24.689c-2.108-2.872-5.497-4.588-9.068-4.588c-3.575,0-6.967,1.717-9.067,4.584l-18.111,24.655 c-12.89,16.609-12.466,37.54,1.052,50.941c6.974,6.908,16.239,10.728,26.121,10.759h0.012c0.007,0,0.016,0,0.023,0 c9.857-0.029,19.124-3.851,26.094-10.761C181.726,181.361,182.163,160.44,169.402,143.741z M157.292,183.511 c-4.026,3.989-9.385,6.198-15.094,6.219c-5.704-0.021-11.064-2.231-15.091-6.219c-7.966-7.897-7.829-19.776,0.348-30.261 c0.046-0.06,0.092-0.12,0.136-0.181l14.609-19.888l14.616,19.9c0.032,0.044,0.065,0.088,0.097,0.131 C165.031,163.799,165.18,175.692,157.292,183.511z"/> </g> </g> <g> <g> <path d="M222.626,29.278L204.494,4.589C202.385,1.716,198.996,0,195.425,0c-3.575,0-6.966,1.718-9.067,4.585l-6.273,8.539 c-2.562,3.488-1.812,8.393,1.677,10.955c3.488,2.562,8.393,1.812,10.955-1.676l2.706-3.684l14.615,19.9 c0.032,0.044,0.065,0.087,0.097,0.131c8.119,10.587,8.267,22.48,0.379,30.299c-4.03,3.995-9.396,6.204-15.081,6.22 c-5.71-0.018-11.075-2.227-15.105-6.219c-6.991-6.93-7.826-16.819-2.234-26.452c2.173-3.743,0.901-8.539-2.842-10.711 c-3.741-2.173-8.538-0.901-10.712,2.842c-9.121,15.708-7.254,33.549,4.755,45.454c6.975,6.906,16.239,10.727,26.159,10.758 c9.854-0.029,19.122-3.85,26.094-10.761C235.162,66.686,235.59,46.239,222.626,29.278z"/> </g> </g> </g>
</svg>