<!DOCTYPE svg PUBLIC "-//W3C//DTD SVG 1.1//EN" "http://www.w3.org/Graphics/SVG/1.1/DTD/svg11.dtd">
<!-- Uploaded to: SVG Repo, www.svgrepo.com, Transformed by: SVG Repo Mixer Tools -->
<svg fill="#30f" width="64px" height="64px" viewBox="0 0 24 24" xmlns="http://www.w3.org/2000/svg" stroke="#30f">
<g id="SVGRepo_bgCarrier" stroke-width="0"/>
<g id="SVGRepo_tracerCarrier" stroke-linecap="round" stroke-linejoin="round"/>
<g id="SVGRepo_iconCarrier"> <title/> <g id="idea"> <path d="M16.52,3.66A7,7,0,0,0,5,9.17a9.49,9.49,0,0,0,3,6.24c.51.58,1,1.18,1,1.49v2.38A2.72,2.72,0,0,0,11.72,22h.56A2.72,2.72,0,0,0,15,19.28V16.9c0-.31.53-.91,1-1.49A9.43,9.43,0,0,0,19,9,7,7,0,0,0,16.52,3.66ZM12.28,21h-.56A1.72,1.72,0,0,1,10,19.28V18h4v1.28A1.72,1.72,0,0,1,12.28,21Zm3-6.25c-.73.81-1.3,1.46-1.3,2.15V17H10v-.1c0-.69-.57-1.34-1.3-2.15A8.63,8.63,0,0,1,6,9.15a6,6,0,0,1,5-6.06A6,6,0,0,1,18,9C18,11.7,16.44,13.46,15.3,14.75Z"/> <path d="M21.5,8h-1a.5.5,0,0,0,0,1h1a.5.5,0,0,0,0-1Z"/> <path d="M4,8.5A.5.5,0,0,0,3.5,8h-1a.5.5,0,0,0,0,1h1A.5.5,0,0,0,4,8.5Z"/> <path d="M3.85,2.15a.49.49,0,0,0-.7.7l1,1a.48.48,0,0,0,.7,0,.48.48,0,0,0,0-.7Z"/> <path d="M19.5,4a.47.47,0,0,0,.35-.15l1-1a.49.49,0,0,0-.7-.7l-1,1a.48.48,0,0,0,0,.7A.47.47,0,0,0,19.5,4Z"/> <path d="M19.85,13.15a.49.49,0,0,0-.7.7l1,1a.48.48,0,0,0,.7,0,.48.48,0,0,0,0-.7Z"/> <path d="M4.15,13.15l-1,1a.48.48,0,0,0,0,.7.48.48,0,0,0,.7,0l1-1a.49.49,0,0,0-.7-.7Z"/> <path d="M13.15,7.15l-3,3a.47.47,0,0,0-.11.54.5.5,0,0,0,.46.31h1.79l-1.14,1.15a.48.48,0,0,0,0,.7.48.48,0,0,0,.7,0l2-2a.47.47,0,0,0,.11-.54A.5.5,0,0,0,13.5,10H11.71l2.14-2.15a.49.49,0,0,0-.7-.7Z"/> </g> </g>
</svg>