<?xml version="1.0" encoding="UTF-8"?>
<svg width="400px" height="105px" viewBox="0 0 275 55" version="1.1" xmlns="http://www.w3.org/2000/svg" xmlns:xlink="http://www.w3.org/1999/xlink">
    <title>img / Logo / GPN / hm</title>
    <defs>
        <rect id="path-1" x="0" y="0" width="400" height="205"></rect>
    </defs>
    <g id="img-/-Logo-/-GPN-/-hm" stroke="none" stroke-width="1" fill="none" fill-rule="evenodd">
        <mask id="mask-2" fill="white">
            <use xlink:href="#path-1"></use>
        </mask>
        <use id="Mask" fill-opacity="0" fill="#FFFFFF" xlink:href="#path-1"></use>
        <g id="Group" mask="url(#mask-2)" fill="#006FAB">
            <g id="logo">
                <polygon id="Fill-98" points="121.898872 13.6477699 114.657112 50 116.331188 50 123.572948 13.6477699"></polygon>
                <path d="M85.0044153,14.7737514 L82.2959945,14.7737514 C80.0064293,14.7737514 79.871749,16.6261029 79.871749,17.8214295 L79.871749,28.7776908 C79.871749,29.9743666 80.0064293,31.8267181 82.2959945,31.8267181 L85.0044153,31.8267181 C87.2939805,31.8267181 87.434048,29.9743666 87.434048,28.7776908 L87.434048,17.8214295 C87.434048,16.6261029 87.2939805,14.7737514 85.0044153,14.7737514 M83.6522251,29.7180324 C83.2508778,29.7180324 82.9249515,29.415828 82.9249515,29.0407706 C82.9249515,29.0326759 82.9289919,29.0245811 82.9289919,29.0151372 L82.9289919,17.5866814 L82.9289919,17.5354146 L82.9330323,17.486846 C82.9707428,17.1509134 83.2751203,16.8837862 83.6495315,16.8837862 C84.0225959,16.8837862 84.3323606,17.1509134 84.3687243,17.486846 L84.3727647,17.5354146 L84.3727647,17.5866814 L84.3727647,29.0151372 C84.3727647,29.0245811 84.3754583,29.0326759 84.3754583,29.0407706 C84.3754583,29.415828 84.049532,29.7180324 83.6522251,29.7180324" id="Fill-100"></path>
                <polygon id="Fill-102" points="34.0407157 14.7737514 40.2777605 14.7737514 40.2777605 16.891881 37.3094066 16.891881 37.3094066 31.8267181 34.0407157 31.8267181"></polygon>
                <path d="M44.3794491,25.4197134 L44.9424127,16.8891827 L45.1269247,16.8891827 L45.6871948,25.4197134 L44.3794491,25.4197134 Z M40.7619361,31.8267181 L43.9578997,31.8267181 L44.2649708,27.293651 L45.8070603,27.293651 L46.1087441,31.8267181 L49.3100949,31.8267181 L47.6023487,14.7737514 L42.4669888,14.7737514 L40.7619361,31.8267181 Z" id="Fill-104"></path>
                <path d="M53.9913128,25.8557513 L53.9913128,29.0653247 C53.9913128,29.503791 54.3131988,29.6279107 54.503098,29.6279107 C54.8061287,29.6279107 55.0162299,29.3580853 55.0162299,29.0653247 L55.0162299,25.1002401 C55.0162299,24.5646367 54.9246473,23.9818138 53.7057906,23.9818138 L52.3805364,23.9818138 L52.3805364,22.1051779 L53.7529287,22.1051779 C54.68761,22.1051779 55.0162299,21.882572 55.0162299,20.842395 L55.0162299,17.4479911 C55.0162299,17.1579288 54.8061287,16.8908017 54.503098,16.8908017 C54.3131988,16.8908017 53.9913128,17.0122231 53.9913128,17.4479911 L53.9913128,20.2298913 L50.7199283,20.2298913 L50.7199283,17.8203502 C50.7199283,16.6263727 50.8626894,14.7740212 53.1482142,14.7740212 L55.8593286,14.7740212 C58.1488938,14.7740212 58.2876145,16.6263727 58.2876145,17.8203502 L58.2876145,20.5509835 C58.2876145,22.3979385 57.0485557,22.9092577 56.0667363,22.8606891 L56.0667363,23.0333774 C58.2606784,22.9807614 58.2876145,24.7359758 58.2876145,25.3471304 L58.2876145,28.7779607 C58.2876145,29.9746364 58.1488938,31.8269879 55.8593286,31.8269879 L53.1482142,31.8269879 C50.8626894,31.8269879 50.7199283,29.9746364 50.7199283,28.7779607 L50.7199283,25.8557513 L53.9913128,25.8557513 Z" id="Fill-106"></path>
                <polygon id="Fill-108" points="60.4384589 14.7737514 68.0047983 14.7737514 68.0047983 31.8267181 64.9542894 31.8267181 64.9542894 16.891881 63.4862741 16.891881 63.4862741 31.8267181 60.4384589 31.8267181"></polygon>
                <path d="M73.6404955,24.1495103 L73.6404955,16.8912064 L74.4997558,16.8912064 C74.853965,16.8912064 75.1112044,17.2082513 75.1112044,17.7411565 L75.1112044,23.2995602 C75.1112044,23.8365128 74.853965,24.1495103 74.4997558,24.1495103 L73.6404955,24.1495103 Z M70.3731514,31.8273927 L73.6404955,31.8273927 L73.6404955,26.0288443 L75.5085113,26.0288443 C77.7980764,26.0288443 78.16306,24.1791911 78.16306,22.9798171 L78.16306,17.820755 C78.16306,16.6267775 77.7980764,14.7730768 75.5085113,14.7730768 L70.3731514,14.7730768 L70.3731514,31.8273927 Z" id="Fill-110"></path>
                <polygon id="Fill-112" points="97.8674616 14.7737514 102.120666 14.7737514 102.120666 31.8267181 98.849281 31.8267181 98.849281 21.1321875 98.7321092 21.1321875 97.0486054 31.8267181 94.4358075 31.8267181 92.7536506 21.1321875 92.6391723 21.1321875 92.6391723 31.8267181 89.3677878 31.8267181 89.3677878 14.7737514 93.6142577 14.7737514 95.7368192 26.7580475"></polygon>
                <path d="M27.3655559,8.81789482 C26.3339048,4.28617684 23.7413089,0.600361566 23.3870998,0 C22.8227893,0.845902701 20.7581403,4.09729905 19.7076339,7.70756321 C18.5628513,11.7333585 18.3931542,15.3031489 18.7877674,18.8216724 C19.1823807,22.3361485 20.6665577,25.9450635 20.6665577,25.9450635 C21.4544374,27.8419363 22.6355837,29.8696743 23.4046082,30.8666793 C24.5291887,29.4001781 27.1244781,25.026308 27.9298663,19.3100564 C28.3783517,16.132862 28.3958602,13.3469145 27.3655559,8.81789482 M23.3870998,29.738809 C22.8807018,28.7822779 22.0887816,26.9596071 22.0147075,24.1439788 C21.9945054,21.4160438 23.0854159,19.0820539 23.4046082,18.5936699 C23.6901304,19.0820539 24.6234649,21.1151885 24.7365964,23.8970886 C24.8133642,26.6196271 23.9136997,28.762041 23.3870998,29.738809 M27.0679124,16.5065702 C27.0288551,18.2361512 26.8227943,20.0601711 26.5601677,21.1489167 C26.6557907,19.2722808 26.428181,16.6212461 25.9958572,14.5503359 C25.566227,12.4794258 24.3419831,9.02700952 23.3668977,7.42559564 C22.4699269,8.94741103 21.3588144,11.9370767 20.7783423,14.5341464 C20.1938298,17.1285178 20.1763214,20.2692858 20.1763214,21.2123256 C20.021439,20.4122932 19.6335597,17.5872211 19.7453444,14.741912 C19.836927,12.3930817 20.383729,9.98354065 20.6840661,8.87185991 C21.8288487,5.16850598 23.12582,2.80078789 23.3668977,2.4230323 C23.6106691,2.80078789 25.2456879,5.71625159 26.0914802,8.77877014 C26.9332321,11.8453361 27.1015825,14.7783384 27.0679124,16.5065702" id="Fill-114"></path>
                <path d="M17.0478326,31.82375 L17.0478326,37.1838321 C17.0545666,37.1770864 17.0613007,37.1689917 17.0720751,37.162246 C18.9414377,35.2950541 21.9744381,35.2950541 23.8451475,37.162246 C25.7185505,39.0253906 25.7185505,42.0582283 23.8451475,43.922722 C23.8384134,43.9308168 23.8316794,43.9375624 23.8222518,43.9456572 L23.8222518,43.9470063 C23.8114774,43.955101 23.8033966,43.9631958 23.7953157,43.9726397 C21.9259532,45.8195947 19.4868929,46.7464451 17.0478326,46.7464451 C14.6020383,46.7464451 12.14951,45.8101508 10.2814943,43.9510537 C6.98990767,40.6632309 6.59529439,35.5797199 9.10842882,31.865573 C9.44512958,31.3636977 9.83570245,30.8874558 10.2814943,30.4449421 C12.14951,28.5804484 14.6020383,27.6508999 17.0478326,27.6508999 L17.0478326,14.8652222 C7.63771992,14.8652222 -1.77329677e-15,22.4796956 -1.77329677e-15,31.865573 C-1.77329677e-15,41.2595451 7.63771992,48.8740185 17.0478326,48.8740185 C21.96097,48.8740185 26.3798307,46.799061 29.4882521,43.4883031 L29.4882521,31.82375 L17.0478326,31.82375 Z" id="Fill-116"></path>
                <path d="M69.190389,41.2089528 L68.9250688,41.2089528 L68.9250688,44.6586708 L69.190389,44.6586708 C69.5742278,44.6586708 69.7129485,44.5493915 69.7129485,44.1149726 L69.7129485,41.7337633 C69.7129485,41.2979952 69.5742278,41.2089528 69.190389,41.2089528 L69.190389,41.2089528 Z M96.8375613,43.514611 L96.4537225,43.514611 L96.4537225,45.4465611 L96.8375613,45.4465611 C97.2240926,45.4465611 97.3412657,45.3480748 97.3412657,44.925798 L97.3412657,44.034025 C97.3412657,43.6103991 97.2240926,43.514611 96.8375613,43.514611 L96.8375613,43.514611 Z M66.448298,41.7540002 L66.448298,44.1244165 C66.448298,44.5588354 66.5870187,44.6586708 66.968164,44.6586708 L67.2469522,44.6586708 L67.2469522,41.2089528 L66.968164,41.2089528 C66.5870187,41.2089528 66.448298,41.3195812 66.448298,41.7540002 L66.448298,41.7540002 Z M34.0415238,48.8733439 L102.12107,48.8733439 L102.12107,37.5055989 L34.0415238,37.5055989 L34.0415238,48.8733439 Z M41.4314319,46.7552144 L39.7048305,46.7552144 L39.7048305,43.514611 L38.8186341,43.514611 L38.8186341,46.7552144 L37.0920326,46.7552144 L37.0920326,39.3512048 L38.8186341,39.3512048 L38.8186341,42.208656 L39.7048305,42.208656 L39.7048305,39.3512048 L41.4314319,39.3512048 L41.4314319,46.7552144 Z M55.7439076,40.7502496 L53.3829619,40.7502496 L53.3829619,42.2059577 L55.4960959,42.2059577 L55.4960959,43.6103991 L53.3829619,43.6103991 L53.3829619,45.3548204 L55.7439076,45.3548204 L55.7439076,46.7606109 L51.6024883,46.7606109 L51.6024883,39.3444591 L55.7439076,39.3444591 L55.7439076,40.7502496 Z M71.3870247,44.1149726 C71.3870247,45.6179002 70.6247342,46.0226384 68.9250688,46.0226384 L68.9250688,46.7552144 L67.2469522,46.7552144 L67.2469522,46.0226384 C65.5418996,46.0226384 64.7701815,45.6179002 64.7701815,44.1149726 L64.7701815,41.8012196 C64.7701815,40.2901972 65.5109231,39.905696 67.2469522,39.905696 L67.2469522,39.3512048 L68.9250688,39.3512048 L68.9250688,39.905696 C70.6503234,39.905696 71.3870247,40.2901972 71.3870247,41.8012196 L71.3870247,44.1149726 Z M84.6651557,40.7502496 L83.3574099,40.7502496 L83.3574099,46.7606109 L81.715657,46.7606109 L81.715657,40.7502496 L80.3149819,40.7502496 L80.3149819,39.3444591 L84.6651557,39.3444591 L84.6651557,40.7502496 Z M99.0651735,44.8461995 C99.0651735,46.4665012 98.3284723,46.7552144 96.4537225,46.7552144 L94.727121,46.7552144 L94.727121,39.3512048 L96.4537225,39.3512048 L96.4537225,42.208656 L96.7419383,42.208656 C98.4375633,42.208656 99.0651735,42.6052994 99.0651735,44.0852918 L99.0651735,44.8461995 Z" id="Fill-118"></path>
                <path d="M85.0046447,14.7737912 L82.2962165,14.7737912 C80.0066452,14.7737912 79.8719645,16.6261478 79.8719645,17.8214776 L79.8719645,28.7777685 C79.8719645,29.9744475 80.0066452,31.826804 82.2962165,31.826804 L85.0046447,31.826804 C87.294216,31.826804 87.4342839,29.9744475 87.4342839,28.7777685 L87.4342839,17.8214776 C87.4342839,16.6261478 87.294216,14.7737912 85.0046447,14.7737912 M83.6524508,29.7181126 C83.2511024,29.7181126 82.9251752,29.4159073 82.9251752,29.040849 C82.9251752,29.0327542 82.9292156,29.0246594 82.9292156,29.0152155 L82.9292156,17.5867289 L82.9292156,17.5354619 L82.9332561,17.4868932 C82.9709667,17.1509596 83.275345,16.8838317 83.6497572,16.8838317 C84.0228227,16.8838317 84.3325882,17.1509596 84.368952,17.4868932 L84.3729924,17.5354619 L84.3729924,17.5867289 L84.3729924,29.0152155 C84.3729924,29.0246594 84.375686,29.0327542 84.375686,29.040849 C84.375686,29.4159073 84.0497588,29.7181126 83.6524508,29.7181126" id="Fill-2"></path>
                <polygon id="Fill-4" points="34.0406728 14.7737912 40.2777345 14.7737912 40.2777345 16.8919265 37.3093726 16.8919265 37.3093726 31.826804 34.0406728 31.826804"></polygon>
                <path d="M44.3795688,25.4196471 L44.942534,16.8890934 L45.1270465,16.8890934 L45.6873181,25.4196471 L44.3795688,25.4196471 Z M40.7620461,31.8266691 L43.9580183,31.8266691 L44.2650902,27.2935897 L45.8071839,27.2935897 L46.1088685,31.8266691 L49.310228,31.8266691 L47.6024771,14.7736563 L42.4671034,14.7736563 L40.7620461,31.8266691 Z" id="Fill-6"></path>
                <path d="M53.9913238,25.8558211 L53.9913238,29.0654032 C53.9913238,29.5038707 54.3132106,29.6279907 54.5031104,29.6279907 C54.8061419,29.6279907 55.0162437,29.3581645 55.0162437,29.0654032 L55.0162437,25.1003079 C55.0162437,24.564703 54.9246609,23.9818785 53.7058008,23.9818785 L52.3805431,23.9818785 L52.3805431,22.1052376 L53.7529391,22.1052376 C54.6876229,22.1052376 55.0162437,21.882631 55.0162437,20.8424512 L55.0162437,17.4480382 C55.0162437,17.1579751 54.8061419,16.8908472 54.5031104,16.8908472 C54.3132106,16.8908472 53.9913238,17.012269 53.9913238,17.4480382 L53.9913238,20.2299458 L50.7199305,20.2299458 L50.7199305,17.8203983 C50.7199305,16.6264176 50.862692,14.7740611 53.1482229,14.7740611 L55.8593447,14.7740611 C58.148916,14.7740611 58.2876371,16.6264176 58.2876371,17.8203983 L58.2876371,20.551039 C58.2876371,22.397999 57.048575,22.9093195 56.0667529,22.8607508 L56.0667529,23.0334396 C58.2607009,22.9808235 58.2876371,24.7360426 58.2876371,25.3471988 L58.2876371,28.7780383 C58.2876371,29.9747173 58.148916,31.8270738 55.8593447,31.8270738 L53.1482229,31.8270738 C50.862692,31.8270738 50.7199305,29.9747173 50.7199305,28.7780383 L50.7199305,25.8558211 L53.9913238,25.8558211 Z" id="Fill-8"></path>
                <polygon id="Fill-10" points="60.4384873 14.7737912 68.0048471 14.7737912 68.0048471 31.826804 64.95433 31.826804 64.95433 16.8919265 63.4863108 16.8919265 63.4863108 31.826804 60.4384873 31.826804"></polygon>
                <path d="M73.6406942,24.1495754 L73.6406942,16.891252 L74.4999568,16.891252 C74.854167,16.891252 75.1114071,17.2082977 75.1114071,17.7412043 L75.1114071,23.2996231 C75.1114071,23.8365771 74.854167,24.1495754 74.4999568,24.1495754 L73.6406942,24.1495754 Z M70.3733413,31.8274786 L73.6406942,31.8274786 L73.6406942,26.0289146 L75.508715,26.0289146 C77.7982863,26.0289146 78.1632709,24.1792563 78.1632709,22.9798791 L78.1632709,17.8208031 C78.1632709,16.6268223 77.7982863,14.7731167 75.508715,14.7731167 L70.3733413,14.7731167 L70.3733413,31.8274786 Z" id="Fill-12"></path>
                <polygon id="Fill-14" points="97.867591 14.7737912 102.120806 14.7737912 102.120806 31.826804 98.8494131 31.826804 98.8494131 21.1322445 98.7322409 21.1322445 97.0487326 31.826804 94.4359277 31.826804 92.7537661 21.1322445 92.6392876 21.1322445 92.6392876 31.826804 89.3678942 31.826804 89.3678942 14.7737912 93.6143756 14.7737912 95.7369429 26.7581197"></polygon>
                <path d="M27.3656297,8.81791862 C26.3339758,4.28618841 23.741373,0.600363186 23.3871629,0 C22.8228509,0.845904983 20.7581963,4.0973101 19.7076871,7.707584 C18.5629014,11.7333902 18.3932038,15.3031902 18.7878181,18.8217232 C19.1824325,22.3362088 20.6666134,25.9451336 20.6666134,25.9451336 C21.4544953,27.8420114 22.6356447,29.8697549 23.4046713,30.8667625 C24.5292549,29.4002574 27.1245513,25.0263755 27.9299417,19.3101085 C28.3784283,16.1329056 28.3959368,13.3469506 27.3656297,8.81791862 M23.3871629,29.7388892 C22.8807636,28.7823555 22.0888412,26.9596799 22.0147669,24.144044 C21.9945648,21.4161016 23.0854782,19.0821054 23.4046713,18.5937201 C23.6901944,19.0821054 24.6235314,21.1152454 24.7366631,23.8971531 C24.8134311,26.6196989 23.9137643,28.7621186 23.3871629,29.7388892 M27.0679854,16.5066148 C27.028928,18.2362004 26.8228666,20.0602252 26.5602393,21.1489737 C26.6558626,19.2723328 26.4282523,16.6212909 25.9959273,14.5503752 C25.566296,12.4794595 24.3420488,9.02703388 23.3669608,7.42561568 C22.4699875,8.94743517 21.358872,11.9371089 20.7783984,14.5341856 C20.1938843,17.1285641 20.1763758,20.2693405 20.1763758,21.2123829 C20.021493,20.4123483 19.6336127,17.5872685 19.7453977,14.7419518 C19.8369805,12.3931151 20.383784,9.98356759 20.6841219,8.87188385 C21.8289076,5.16851992 23.1258824,2.80079545 23.3669608,2.42303884 C23.6107328,2.80079545 25.245756,5.71626701 26.0915506,8.77879382 C26.9333048,11.845368 27.1016556,14.7783783 27.0679854,16.5066148" id="Fill-16"></path>
                <path d="M17.0478786,31.8238359 L17.0478786,37.1839324 C17.0546127,37.1771867 17.0613467,37.169092 17.0721211,37.1623463 C18.9414888,35.2951493 21.9744974,35.2951493 23.8452118,37.1623463 C25.7186199,39.0254959 25.7186199,42.0583418 23.8452118,43.9228405 C23.8384778,43.9309353 23.8317437,43.937681 23.8223161,43.9457757 L23.8223161,43.9471249 C23.8115416,43.9552197 23.8034608,43.9633144 23.79538,43.9727584 C21.9260123,45.8197184 19.4869455,46.7465712 17.0478786,46.7465712 C14.6020777,46.7465712 12.1495428,45.8102744 10.281522,43.9511723 C6.98992653,40.6633406 6.59531218,35.5798159 9.1084534,31.865659 C9.44515506,31.3637823 9.83572899,30.8875392 10.281522,30.4450243 C12.1495428,28.5805256 14.6020777,27.6509745 17.0478786,27.6509745 L17.0478786,14.8652623 C7.63774053,14.8652623 5.31989031e-15,22.4797563 5.31989031e-15,31.865659 C5.31989031e-15,41.2596564 7.63774053,48.8741504 17.0478786,48.8741504 C21.9610293,48.8741504 26.3799019,46.7991873 29.4883317,43.4884204 L29.4883317,31.8238359 L17.0478786,31.8238359 Z" id="Fill-18"></path>
                <path d="M69.190441,41.209064 L68.9251201,41.209064 L68.9251201,44.6587913 L69.190441,44.6587913 C69.5742809,44.6587913 69.713002,44.5495117 69.713002,44.1150916 L69.713002,41.7338759 C69.713002,41.2981066 69.5742809,41.209064 69.190441,41.209064 L69.190441,41.209064 Z M96.837688,43.5147285 L96.4538481,43.5147285 L96.4538481,45.4466837 L96.837688,45.4466837 C97.2242175,45.4466837 97.3413936,45.3481972 97.3413936,44.9259192 L97.3413936,44.0341438 C97.3413936,43.6105167 97.2242175,43.5147285 96.837688,43.5147285 L96.837688,43.5147285 Z M66.4483426,41.7541128 L66.4483426,44.1245356 C66.4483426,44.5589557 66.5870637,44.6587913 66.96821,44.6587913 L67.246999,44.6587913 L67.246999,41.209064 L66.96821,41.209064 C66.5870637,41.209064 66.4483426,41.3196927 66.4483426,41.7541128 L66.4483426,41.7541128 Z M34.0414809,48.8734758 L102.12121,48.8734758 L102.12121,37.5057001 L34.0414809,37.5057001 L34.0414809,48.8734758 Z M41.431409,46.7553405 L39.7048029,46.7553405 L39.7048029,43.5147285 L38.8186041,43.5147285 L38.8186041,46.7553405 L37.091998,46.7553405 L37.091998,39.351311 L38.8186041,39.351311 L38.8186041,42.2087699 L39.7048029,42.2087699 L39.7048029,39.351311 L41.431409,39.351311 L41.431409,46.7553405 Z M55.7439233,40.7503595 L53.3829713,40.7503595 L53.3829713,42.2060716 L55.4961109,42.2060716 L55.4961109,43.6105167 L53.3829713,43.6105167 L53.3829713,45.3549428 L55.7439233,45.3549428 L55.7439233,46.7607371 L51.6024929,46.7607371 L51.6024929,39.3445653 L55.7439233,39.3445653 L55.7439233,40.7503595 Z M71.3870826,44.1150916 C71.3870826,45.6180233 70.6247901,46.0227625 68.9251201,46.0227625 L68.9251201,46.7553405 L67.246999,46.7553405 L67.246999,46.0227625 C65.5419418,46.0227625 64.7702215,45.6180233 64.7702215,44.1150916 L64.7702215,41.8013324 C64.7702215,40.290306 65.5109652,39.9058037 67.246999,39.9058037 L67.246999,39.351311 L68.9251201,39.351311 L68.9251201,39.9058037 C70.6503794,39.9058037 71.3870826,40.290306 71.3870826,41.8013324 L71.3870826,44.1150916 Z M84.6652494,40.7503595 L83.3575002,40.7503595 L83.3575002,46.7607371 L81.7157429,46.7607371 L81.7157429,40.7503595 L80.3150639,40.7503595 L80.3150639,39.3445653 L84.6652494,39.3445653 L84.6652494,40.7503595 Z M99.0653062,44.8463205 C99.0653062,46.4666266 98.3286029,46.7553405 96.4538481,46.7553405 L94.7272419,46.7553405 L94.7272419,39.351311 L96.4538481,39.351311 L96.4538481,42.2087699 L96.7420647,42.2087699 C98.4376943,42.2087699 99.0653062,42.6054143 99.0653062,44.0854108 L99.0653062,44.8463205 Z" id="Fill-20"></path>
                <polygon id="Fill-1" points="121.899066 13.6476718 114.657287 50 116.331367 50 123.573147 13.6476718"></polygon>
            </g>
        </g>
        <g id="txt" mask="url(#mask-2)" fill="#006FAB" fill-rule="nonzero">
            <g transform="translate(136.375000, 18.515000)">
                <polygon id="Path" points="7.17 1.92 2.925 1.92 2.925 10.485 0.825 10.485 0.825 0.135 7.17 0.135"></polygon>
                <path d="M6.74,10.485 L10.34,0.135 L12.35,0.135 L15.95,10.485 L13.715,10.485 L13.085,8.52 L9.62,8.52 L8.99,10.485 L6.74,10.485 Z M10.175,6.75 L12.515,6.75 L11.345,3.105 L10.175,6.75 Z" id="Shape"></path>
                <path d="M19.36,4.23 L20.485,4.23 C21.085,4.23 21.51,4.115 21.76,3.885 C22.01,3.655 22.135,3.35 22.135,2.97 C22.135,2.61 22.02,2.3175 21.79,2.0925 C21.56,1.8675 21.16,1.755 20.59,1.755 C20.03,1.755 19.615,1.8725 19.345,2.1075 C19.075,2.3425 18.875,2.645 18.745,3.015 L16.9,3.015 C16.94,2.555 17.0675,2.1375 17.2825,1.7625 C17.4975,1.3875 17.775,1.07 18.115,0.81 C18.455,0.55 18.8425,0.35 19.2775,0.21 C19.7125,0.07 20.175,0 20.665,0 C21.135,0 21.585,0.0575 22.015,0.1725 C22.445,0.2875 22.825,0.46 23.155,0.69 C23.485,0.92 23.7475,1.21 23.9425,1.56 C24.1375,1.91 24.235,2.315 24.235,2.775 C24.235,3.315 24.115,3.765 23.875,4.125 C23.635,4.485 23.305,4.79 22.885,5.04 C23.395,5.25 23.8025,5.5625 24.1075,5.9775 C24.4125,6.3925 24.565,6.905 24.565,7.515 C24.565,7.985 24.4775,8.41 24.3025,8.79 C24.1275,9.17 23.8725,9.495 23.5375,9.765 C23.2025,10.035 22.7925,10.245 22.3075,10.395 C21.8225,10.545 21.27,10.62 20.65,10.62 C19.54,10.62 18.635,10.3675 17.935,9.8625 C17.235,9.3575 16.785,8.565 16.585,7.485 L18.595,7.485 C18.785,7.955 19.0275,8.3 19.3225,8.52 C19.6175,8.74 20.035,8.85 20.575,8.85 C21.835,8.85 22.465,8.375 22.465,7.425 C22.465,6.475 21.795,6 20.455,6 L19.36,6 L19.36,4.23 Z" id="Path"></path>
                <polygon id="Path" points="34.41 0.135 34.41 10.485 32.31 10.485 32.31 1.92 28.56 1.92 28.56 10.485 26.46 10.485 26.46 0.135"></polygon>
                <path d="M38.93,6.84 L38.93,10.485 L36.83,10.485 L36.83,0.135 L40.535,0.135 C41.725,0.135 42.6675,0.41 43.3625,0.96 C44.0575,1.51 44.405,2.34 44.405,3.45 C44.405,4.55 44.0625,5.39 43.3775,5.97 C42.6925,6.55 41.745,6.84 40.535,6.84 L38.93,6.84 Z M40.235,5.07 C40.965,5.07 41.4925,4.94 41.8175,4.68 C42.1425,4.42 42.305,4.01 42.305,3.45 C42.305,2.95 42.1425,2.57 41.8175,2.31 C41.4925,2.05 40.965,1.92 40.235,1.92 L38.93,1.92 L38.93,5.07 L40.235,5.07 Z" id="Shape"></path>
                <path d="M53.68,6.045 C53.68,6.835 53.5825,7.5175 53.3875,8.0925 C53.1925,8.6675 52.92,9.1425 52.57,9.5175 C52.22,9.8925 51.8,10.17 51.31,10.35 C50.82,10.53 50.285,10.62 49.705,10.62 C49.125,10.62 48.5925,10.53 48.1075,10.35 C47.6225,10.17 47.205,9.8925 46.855,9.5175 C46.505,9.1425 46.2325,8.6675 46.0375,8.0925 C45.8425,7.5175 45.745,6.835 45.745,6.045 L45.745,4.575 C45.745,3.775 45.8425,3.0875 46.0375,2.5125 C46.2325,1.9375 46.505,1.4625 46.855,1.0875 C47.205,0.7125 47.6225,0.4375 48.1075,0.2625 C48.5925,0.0875 49.125,0 49.705,0 C50.285,0 50.82,0.0875 51.31,0.2625 C51.8,0.4375 52.22,0.7125 52.57,1.0875 C52.92,1.4625 53.1925,1.9375 53.3875,2.5125 C53.5825,3.0875 53.68,3.775 53.68,4.575 L53.68,6.045 Z M47.845,6.045 C47.845,7.035 48.0025,7.75 48.3175,8.19 C48.6325,8.63 49.095,8.85 49.705,8.85 C50.315,8.85 50.78,8.63 51.1,8.19 C51.42,7.75 51.58,7.035 51.58,6.045 L51.58,4.575 C51.58,3.585 51.42,2.87 51.1,2.43 C50.78,1.99 50.315,1.77 49.705,1.77 C49.095,1.77 48.6325,1.99 48.3175,2.43 C48.0025,2.87 47.845,3.585 47.845,4.575 L47.845,6.045 Z" id="Shape"></path>
                <polygon id="Path" points="60.66 5.775 63.54 0.135 65.535 0.135 65.535 10.485 63.525 10.485 63.525 4.065 61.275 8.625 60 8.625 57.78 4.11 57.78 10.485 55.785 10.485 55.785 0.135 57.75 0.135"></polygon>
                <polygon id="Path" points="70.055 4.245 73.64 4.245 73.64 0.135 75.74 0.135 75.74 10.485 73.64 10.485 73.64 6.015 70.055 6.015 70.055 10.485 67.955 10.485 67.955 0.135 70.055 0.135"></polygon>
                <polygon id="Path" points="84.625 0.135 84.625 1.92 80.275 1.92 80.275 4.245 84.175 4.245 84.175 6.015 80.275 6.015 80.275 8.715 84.625 8.715 84.625 10.485 78.175 10.485 78.175 0.135"></polygon>
                <path d="M90.285,0.135 L92.385,0.135 L92.385,0.885 C92.985,0.885 93.54,0.9525 94.05,1.0875 C94.56,1.2225 95.0025,1.4525 95.3775,1.7775 C95.7525,2.1025 96.0475,2.5325 96.2625,3.0675 C96.4775,3.6025 96.585,4.27 96.585,5.07 L96.585,5.55 C96.585,6.35 96.4775,7.0175 96.2625,7.5525 C96.0475,8.0875 95.7525,8.5175 95.3775,8.8425 C95.0025,9.1675 94.56,9.3975 94.05,9.5325 C93.54,9.6675 92.985,9.735 92.385,9.735 L92.385,10.485 L90.285,10.485 L90.285,9.735 C89.685,9.735 89.1275,9.6675 88.6125,9.5325 C88.0975,9.3975 87.6525,9.1675 87.2775,8.8425 C86.9025,8.5175 86.61,8.0875 86.4,7.5525 C86.19,7.0175 86.085,6.35 86.085,5.55 L86.085,5.07 C86.085,4.27 86.19,3.6025 86.4,3.0675 C86.61,2.5325 86.9025,2.1025 87.2775,1.7775 C87.6525,1.4525 88.0975,1.2225 88.6125,1.0875 C89.1275,0.9525 89.685,0.885 90.285,0.885 L90.285,0.135 Z M92.385,7.965 C92.735,7.965 93.04,7.9275 93.3,7.8525 C93.56,7.7775 93.7775,7.65 93.9525,7.47 C94.1275,7.29 94.26,7.045 94.35,6.735 C94.44,6.425 94.485,6.03 94.485,5.55 L94.485,5.07 C94.485,4.59 94.44,4.195 94.35,3.885 C94.26,3.575 94.1275,3.33 93.9525,3.15 C93.7775,2.97 93.56,2.8425 93.3,2.7675 C93.04,2.6925 92.735,2.655 92.385,2.655 L92.385,7.965 Z M90.285,2.655 C89.935,2.655 89.63,2.6925 89.37,2.7675 C89.11,2.8425 88.8925,2.97 88.7175,3.15 C88.5425,3.33 88.41,3.575 88.32,3.885 C88.23,4.195 88.185,4.59 88.185,5.07 L88.185,5.55 C88.185,6.03 88.23,6.425 88.32,6.735 C88.41,7.045 88.5425,7.29 88.7175,7.47 C88.8925,7.65 89.11,7.7775 89.37,7.8525 C89.63,7.9275 89.935,7.965 90.285,7.965 L90.285,2.655 Z" id="Shape"></path>
                <polygon id="Path" points="105.23 0.135 105.23 1.92 102.38 1.92 102.38 10.485 100.28 10.485 100.28 1.92 97.43 1.92 97.43 0.135"></polygon>
                <path d="M108.85,0.135 L108.85,3.93 L110.455,3.93 C111.145,3.93 111.7325,4.015 112.2175,4.185 C112.7025,4.355 113.1025,4.59 113.4175,4.89 C113.7325,5.19 113.9625,5.54 114.1075,5.94 C114.2525,6.34 114.325,6.765 114.325,7.215 C114.325,7.665 114.2525,8.0875 114.1075,8.4825 C113.9625,8.8775 113.7325,9.2225 113.4175,9.5175 C113.1025,9.8125 112.7025,10.0475 112.2175,10.2225 C111.7325,10.3975 111.145,10.485 110.455,10.485 L106.75,10.485 L106.75,0.135 L108.85,0.135 Z M108.85,5.7 L108.85,8.715 L110.335,8.715 C111.025,8.715 111.5125,8.58 111.7975,8.31 C112.0825,8.04 112.225,7.675 112.225,7.215 C112.225,6.745 112.0825,6.375 111.7975,6.105 C111.5125,5.835 111.025,5.7 110.335,5.7 L108.85,5.7 Z" id="Shape"></path>
                <polygon id="Path" points="0 27.485 2.91 22.145 0.315 17.135 2.595 17.135 4.245 20.435 5.91 17.135 8.175 17.135 5.565 22.145 8.49 27.485 6.225 27.485 4.245 23.96 2.28 27.485"></polygon>
                <path d="M9.065,27.485 L12.665,17.135 L14.675,17.135 L18.275,27.485 L16.04,27.485 L15.41,25.52 L11.945,25.52 L11.315,27.485 L9.065,27.485 Z M12.5,23.75 L14.84,23.75 L13.67,20.105 L12.5,23.75 Z" id="Shape"></path>
                <polygon id="Path" points="21.73 21.245 25.315 21.245 25.315 17.135 27.415 17.135 27.415 27.485 25.315 27.485 25.315 23.015 21.73 23.015 21.73 27.485 19.63 27.485 19.63 17.135 21.73 17.135"></polygon>
                <polygon id="Path" points="36.75 17.135 36.75 18.92 33.9 18.92 33.9 27.485 31.8 27.485 31.8 18.92 28.95 18.92 28.95 17.135"></polygon>
                <path d="M45.785,23.045 C45.785,23.835 45.6875,24.5175 45.4925,25.0925 C45.2975,25.6675 45.025,26.1425 44.675,26.5175 C44.325,26.8925 43.905,27.17 43.415,27.35 C42.925,27.53 42.39,27.62 41.81,27.62 C41.23,27.62 40.6975,27.53 40.2125,27.35 C39.7275,27.17 39.31,26.8925 38.96,26.5175 C38.61,26.1425 38.3375,25.6675 38.1425,25.0925 C37.9475,24.5175 37.85,23.835 37.85,23.045 L37.85,21.575 C37.85,20.775 37.9475,20.0875 38.1425,19.5125 C38.3375,18.9375 38.61,18.4625 38.96,18.0875 C39.31,17.7125 39.7275,17.4375 40.2125,17.2625 C40.6975,17.0875 41.23,17 41.81,17 C42.39,17 42.925,17.0875 43.415,17.2625 C43.905,17.4375 44.325,17.7125 44.675,18.0875 C45.025,18.4625 45.2975,18.9375 45.4925,19.5125 C45.6875,20.0875 45.785,20.775 45.785,21.575 L45.785,23.045 Z M39.95,23.045 C39.95,24.035 40.1075,24.75 40.4225,25.19 C40.7375,25.63 41.2,25.85 41.81,25.85 C42.42,25.85 42.885,25.63 43.205,25.19 C43.525,24.75 43.685,24.035 43.685,23.045 L43.685,21.575 C43.685,20.585 43.525,19.87 43.205,19.43 C42.885,18.99 42.42,18.77 41.81,18.77 C41.2,18.77 40.7375,18.99 40.4225,19.43 C40.1075,19.87 39.95,20.585 39.95,21.575 L39.95,23.045 Z" id="Shape"></path>
                <path d="M53.32,20.345 C53.22,19.855 53.025,19.47 52.735,19.19 C52.445,18.91 52.045,18.77 51.535,18.77 C50.925,18.77 50.4625,18.99 50.1475,19.43 C49.8325,19.87 49.675,20.585 49.675,21.575 L49.675,23.045 C49.675,24.015 49.8325,24.725 50.1475,25.175 C50.4625,25.625 50.925,25.85 51.535,25.85 C52.065,25.85 52.4675,25.72 52.7425,25.46 C53.0175,25.2 53.21,24.805 53.32,24.275 L55.315,24.275 C55.145,25.445 54.74,26.295 54.1,26.825 C53.46,27.355 52.605,27.62 51.535,27.62 C50.955,27.62 50.4225,27.53 49.9375,27.35 C49.4525,27.17 49.035,26.8925 48.685,26.5175 C48.335,26.1425 48.0625,25.6675 47.8675,25.0925 C47.6725,24.5175 47.575,23.835 47.575,23.045 L47.575,21.575 C47.575,20.775 47.6725,20.0875 47.8675,19.5125 C48.0625,18.9375 48.335,18.4625 48.685,18.0875 C49.035,17.7125 49.4525,17.4375 49.9375,17.2625 C50.4225,17.0875 50.955,17 51.535,17 C52.565,17 53.4125,17.2725 54.0775,17.8175 C54.7425,18.3625 55.16,19.205 55.33,20.345 L53.32,20.345 Z" id="Path"></path>
            </g>
        </g>
    </g>
</svg>