<!DOCTYPE svg PUBLIC "-//W3C//DTD SVG 1.1//EN" "http://www.w3.org/Graphics/SVG/1.1/DTD/svg11.dtd">
<!-- Uploaded to: SVG Repo, www.svgrepo.com, Transformed by: SVG Repo Mixer Tools -->
<svg fill="#30f" version="1.1" id="Layer_1" xmlns="http://www.w3.org/2000/svg" xmlns:xlink="http://www.w3.org/1999/xlink" viewBox="0 0 296.443 296.443" xml:space="preserve" width="64px" height="64px" stroke="#30f">
<g id="SVGRepo_bgCarrier" stroke-width="0"/>
<g id="SVGRepo_tracerCarrier" stroke-linecap="round" stroke-linejoin="round"/>
<g id="SVGRepo_iconCarrier"> <g> <g> <g> <path d="M228.571,56.222l-26.119-36.571h-45.31v47.619h71.429V56.222z M194.195,57.746l-2.933-11.733l6.11-3.057l-4.262-8.519 l-12.938,6.467l4.205,16.843h-17.71V29.175h30.881l20.41,28.571H194.195z"/> <path d="M66.667,119.651c-7.876,0-14.286,6.41-14.286,14.286c0,7.876,6.41,14.286,14.286,14.286 c7.876,0,14.286-6.41,14.286-14.286C80.953,126.061,74.543,119.651,66.667,119.651z M66.667,138.699 c-2.624,0-4.762-2.133-4.762-4.762c0-2.629,2.138-4.762,4.762-4.762c2.624,0,4.762,2.133,4.762,4.762 C71.429,136.566,69.29,138.699,66.667,138.699z"/> <path d="M228.571,119.651c-7.876,0-14.286,6.41-14.286,14.286c0,7.876,6.41,14.286,14.286,14.286 c7.876,0,14.286-6.41,14.286-14.286C242.857,126.061,236.448,119.651,228.571,119.651z M228.571,138.699 c-2.624,0-4.762-2.133-4.762-4.762c0-2.629,2.138-4.762,4.762-4.762c2.624,0,4.762,2.133,4.762,4.762 C233.333,136.566,231.195,138.699,228.571,138.699z"/> <path d="M247.62,243.461h48.823l-1.319-5.819c-4.871-21.462-24.852-37.038-47.505-37.038c-17.029,0-32.457,9.048-40.948,23.81 H121.9c-4.871-8.467-12.067-14.971-20.5-19.048h25.729l14.286,9.524h44.3v-47.619h104.762v-9.524h-38.624 c5.114-5.005,8.6-11.638,9.671-19.048h19.429c11.805,0,14.286-7.771,14.286-14.286V81.556c0-11.805-9.633-22.271-17.89-23.667 l-19.033-4.762c-4.795-1.214-7.567-3.086-11.581-7.671l-23.933-33.5C216.662,4.103,209.629,0.603,200,0.603h-90.476 c-9.633,0-16.667,3.5-22.924,11.519L63.071,45.099c-4.276,4.924-7.538,7.162-11.476,7.952l-28.757,4.795 C9.181,60.689,0,72.131,0,86.318v33.333c0,10.324,8.724,19.048,19.048,19.048h14.667c2.324,16.124,16.195,28.571,32.952,28.571 h74.748l-14.286,9.524H0v9.524h130.014l14.286-9.524h31.89v28.571H144.3l-14.286-9.524H0v9.524h59.867 c-13.1,6.181-23.167,17.895-26.414,32.281l-1.314,5.814h48.814v9.524h-48.82l1.319,5.819c4.871,21.462,24.852,37.038,47.5,37.038 c17.029,0,32.457-9.048,40.948-23.81h84.776c8.49,14.762,23.919,23.81,40.948,23.81c22.676,0,42.657-15.576,47.51-37.043 l1.305-5.814H247.62V243.461z M228.571,157.746c-13.129,0-23.81-10.681-23.81-23.81c0-13.129,10.681-23.81,23.81-23.81 c13.129,0,23.81,10.681,23.81,23.81C252.381,147.064,241.7,157.746,228.571,157.746z M33.714,129.173H19.048 c-5.072,0.001-9.524-4.452-9.524-9.523V95.84h9.524v9.524h9.524V95.84c0-6.143-3.381-9.524-9.524-9.524H9.524 c0-11.781,7.881-17.614,15.071-19.114l28.724-4.79c6.214-1.248,11.281-4.557,17.224-11.424l23.686-33.171 c4.381-5.605,8.529-7.69,15.295-7.69H200c6.762,0,10.91,2.086,15.171,7.529l24.09,33.69c4.671,5.371,9.095,9.086,16.724,11.014 l19.4,4.838c4.067,0.7,10.329,7.171,10.329,14.357v4.762h-9.524v9.524h9.524v28.571c0,4.09-0.667,4.762-4.762,4.762h-19.429 c-2.324-16.124-16.195-28.571-32.952-28.571c-16.757,0-30.629,12.448-32.952,28.571h-38.476v-10.857l24.576-8.19h13.519v-9.524 h-10.381l-3.995-19.981l-9.338,1.871l3.938,19.69l-22.71,7.571l-3.505-1.752l4.41-8.819l-20.771-15.576l-3.267-16.338h22.762 V19.651h-45.31L80.952,56.222v11.048h38.952l3.338,16.69l-17.248,10.352l-11.71-15.614l-7.619,5.714l16.862,22.486l24.748-14.848 l13.305,9.981l-5.114,10.229l11.152,5.571v11.343h-48c-2.324-16.124-16.195-28.571-32.952-28.571 C49.909,100.603,36.037,113.05,33.714,129.173z M91.567,57.746l20.41-28.571h30.881v28.571H91.567z M66.667,157.746 c-13.129,0-23.81-10.682-23.81-23.81c0-13.129,10.681-23.81,23.81-23.81c13.129,0,23.81,10.681,23.81,23.81 C90.477,147.066,79.796,157.746,66.667,157.746z M89.948,157.746c5.114-5.005,8.6-11.638,9.671-19.048h48h9.524h38.476 c1.067,7.41,4.552,14.043,9.671,19.048H89.948z M283.967,262.508c-5.862,13.914-20.505,23.81-36.348,23.81 c-14.381,0-27.343-8.109-33.829-21.167l-1.314-2.643h-96.381l-1.314,2.643c-6.486,13.057-19.448,21.167-33.829,21.167 c-15.824,0-30.462-9.895-36.338-23.81h45.862v-28.571H44.61c5.857-13.914,20.505-23.81,36.343-23.81 c14.381,0,27.343,8.11,33.829,21.167l1.314,2.643h96.381l1.314-2.643c6.486-13.057,19.448-21.167,33.829-21.167 c15.824,0,30.467,9.895,36.343,23.81h-45.867v28.571H283.967z"/> <rect x="119.048" y="243.461" width="9.524" height="9.524"/> <rect x="138.095" y="243.461" width="9.524" height="9.524"/> <rect x="157.143" y="186.318" width="9.524" height="9.524"/> <rect x="23.81" y="157.746" width="9.524" height="9.524"/> <rect x="4.762" y="157.746" width="9.524" height="9.524"/> </g> </g> </g> </g>
</svg>