<!DOCTYPE svg PUBLIC "-//W3C//DTD SVG 1.1//EN" "http://www.w3.org/Graphics/SVG/1.1/DTD/svg11.dtd">
<!-- Uploaded to: SVG Repo, www.svgrepo.com, Transformed by: SVG Repo Mixer Tools -->
<svg fill="#30f" height="64px" width="64px" version="1.1" id="Layer_1" xmlns="http://www.w3.org/2000/svg" xmlns:xlink="http://www.w3.org/1999/xlink" viewBox="0 0 512 512" xml:space="preserve" stroke="#30f">
<g id="SVGRepo_bgCarrier" stroke-width="0"/>
<g id="SVGRepo_tracerCarrier" stroke-linecap="round" stroke-linejoin="round"/>
<g id="SVGRepo_iconCarrier"> <g> <g> <path d="M501.801,257.271h-19.495l-47.321-114.161c-1.579-3.809-5.296-6.294-9.421-6.294H363.94V108.1 c0-5.632-4.567-10.199-10.199-10.199H10.199C4.566,97.901,0,102.468,0,108.1V374.93c0,5.632,4.566,10.199,10.199,10.199h39.613 c3.929,16.588,18.853,28.97,36.624,28.97c17.772,0,32.696-12.383,36.625-28.97h275.027c3.929,16.588,18.853,28.97,36.624,28.97 s32.696-12.383,36.624-28.97h30.464c5.632,0,10.199-4.567,10.199-10.199v-107.46C512,261.839,507.433,257.271,501.801,257.271z M86.436,393.702c-9.51,0-17.246-7.736-17.246-17.246c0-9.51,7.736-17.247,17.246-17.247c9.51,0,17.247,7.737,17.247,17.247 C103.683,385.966,95.946,393.702,86.436,393.702z M343.542,364.731h-221.34c-4.94-15.033-19.101-25.921-35.766-25.921 s-30.825,10.889-35.766,25.921H20.398v-42.117h323.143V364.731z M343.542,302.216H20.398V118.299h323.143V302.216z M363.94,157.216h54.81l41.474,100.056H363.94V157.216z M434.712,393.702c-9.51,0-17.246-7.736-17.246-17.246 c0-9.51,7.736-17.247,17.246-17.247c9.51,0,17.246,7.737,17.246,17.247C451.958,385.966,444.222,393.702,434.712,393.702z M491.602,299.666h-17.36c-5.632,0-10.199,4.567-10.199,10.199s4.567,10.199,10.199,10.199h17.36v44.666h-21.124 c-4.94-15.033-19.101-25.921-35.766-25.921s-30.825,10.889-35.766,25.921H363.94V277.67h127.661V299.666z"/> </g> </g> <g> <g> <path d="M184,198.171v-26.38c10.042,0.75,13.49,5.546,17.686,5.546c5.546,0,7.944-6.895,7.944-10.342 c0-8.693-15.888-11.54-25.631-11.84v-3.897c0-1.948-2.548-3.747-5.097-3.747c-2.848,0-5.096,1.799-5.096,3.747v4.197 c-14.989,1.948-29.078,10.192-29.078,29.227c0,19.186,15.438,25.031,29.078,30.126v29.828 c-13.191-1.499-17.686-11.241-23.383-11.241c-4.647,0-8.393,6.295-8.393,10.491c0,8.394,13.639,18.136,31.776,18.587v4.196 c0,1.948,2.248,3.747,5.096,3.747c2.549,0,5.097-1.799,5.097-3.747v-4.647c16.787-2.699,28.328-13.34,28.328-31.776 C212.328,209.861,197.339,203.117,184,198.171z M175.006,194.873c-6.895-2.699-11.99-5.546-11.99-12.14 c0-5.696,4.497-9.292,11.99-10.492V194.873z M182.8,244.485v-26.079c6.445,2.848,11.241,6.445,11.241,13.79 C194.042,239.238,189.395,243.136,182.8,244.485z"/> </g> </g> <g> <g> <path d="M46.694,159.932c-5.633,0-10.199,4.567-10.199,10.199v2.145c0,5.632,4.566,10.199,10.199,10.199 c5.633,0,10.199-4.567,10.199-10.199v-2.145C56.893,164.498,52.327,159.932,46.694,159.932z"/> </g> </g> <g> <g> <path d="M46.694,196.427c-5.633,0-10.199,4.567-10.199,10.199v70.842c0,5.632,4.566,10.199,10.199,10.199 c5.633,0,10.199-4.567,10.199-10.199v-70.842C56.893,200.993,52.327,196.427,46.694,196.427z"/> </g> </g> </g>
</svg>